<svg version="1.0" xmlns="http://www.w3.org/2000/svg"
 width="500" height="175" viewBox="0 0 1013.000000 350.000000">
<g transform="translate(0.000000,350.000000) scale(0.100000,-0.100000)"
fill="#E15544" stroke="none">
<path d="M2000 1750 l0 -1750 500 0 500 0 0 50 0 50 175 0 175 0 0 100 0 100
175 0 175 0 0 100 0 100 175 0 175 0 0 250 0 250 100 0 100 0 0 250 0 250 50
0 50 0 0 250 0 250 -50 0 -50 0 0 250 0 250 -100 0 -100 0 0 250 0 250 -175 0
-175 0 0 100 0 100 -175 0 -175 0 0 100 0 100 -175 0 -175 0 0 50 0 50 -500 0
-500 0 0 -1750z m850 1200 l0 -50 175 0 175 0 0 -100 0 -100 175 0 175 0 0
-100 0 -100 100 0 100 0 0 -250 0 -250 50 0 50 0 0 -250 0 -250 -50 0 -50 0 0
-250 0 -250 -100 0 -100 0 0 -100 0 -100 -175 0 -175 0 0 -100 0 -100 -175 0
-175 0 0 -50 0 -50 -175 0 -175 0 0 1250 0 1250 175 0 175 0 0 -50z"/>
<path d="M4550 3250 l0 -250 50 0 50 0 0 -250 0 -250 50 0 50 0 0 -250 0 -250
50 0 50 0 0 -250 0 -250 65 0 65 0 0 -250 0 -250 50 0 50 0 0 -250 0 -250 120
0 120 0 0 -250 0 -250 250 0 250 0 0 250 0 250 130 0 130 0 0 250 0 250 50 0
50 0 0 250 0 250 55 0 55 0 0 250 0 250 50 0 50 0 0 -250 0 -250 55 0 55 0 0
-250 0 -250 50 0 50 0 0 -250 0 -250 130 0 130 0 0 -250 0 -250 250 0 250 0 0
250 0 250 120 0 120 0 0 250 0 250 50 0 50 0 0 250 0 250 65 0 65 0 0 250 0
250 50 0 50 0 0 250 0 250 50 0 50 0 0 250 0 250 50 0 50 0 0 250 0 250 -250
0 -250 0 0 -250 0 -250 -50 0 -50 0 0 -250 0 -250 -50 0 -50 0 0 -250 0 -250
-50 0 -50 0 0 -250 0 -250 -65 0 -65 0 0 -250 0 -250 -100 0 -100 0 0 250 0
250 -55 0 -55 0 0 250 0 250 -50 0 -50 0 0 250 0 250 -50 0 -50 0 0 250 0 250
-50 0 -50 0 0 250 0 250 -250 0 -250 0 0 -250 0 -250 -50 0 -50 0 0 -250 0
-250 -50 0 -50 0 0 -250 0 -250 -50 0 -50 0 0 -250 0 -250 -55 0 -55 0 0 -250
0 -250 -100 0 -100 0 0 250 0 250 -65 0 -65 0 0 250 0 250 -50 0 -50 0 0 250
0 250 -50 0 -50 0 0 250 0 250 -50 0 -50 0 0 250 0 250 -250 0 -250 0 0 -250z"/>
<path d="M900 2650 l0 -150 -150 0 -150 0 0 -150 0 -150 -150 0 -150 0 0 -150
0 -150 -150 0 -150 0 0 -250 0 -250 150 0 150 0 0 -150 0 -150 150 0 150 0 0
-150 0 -150 150 0 150 0 0 -150 0 -150 250 0 250 0 0 250 0 250 -150 0 -150 0
0 150 0 150 -150 0 -150 0 0 150 0 150 -150 0 -150 0 0 50 0 50 150 0 150 0 0
150 0 150 150 0 150 0 0 150 0 150 150 0 150 0 0 250 0 250 -250 0 -250 0 0
-150z"/>
<path d="M8730 2550 l0 -250 150 0 150 0 0 -150 0 -150 150 0 150 0 0 -150 0
-150 150 0 150 0 0 -50 0 -50 -150 0 -150 0 0 -150 0 -150 -150 0 -150 0 0
-150 0 -150 -150 0 -150 0 0 -250 0 -250 250 0 250 0 0 150 0 150 150 0 150 0
0 150 0 150 150 0 150 0 0 150 0 150 150 0 150 0 0 250 0 250 -150 0 -150 0 0
150 0 150 -150 0 -150 0 0 150 0 150 -150 0 -150 0 0 150 0 150 -250 0 -250 0
0 -250z"/>
</g>
</svg>